<?xml version="1.0" encoding="UTF-8" standalone="no"?>
<!DOCTYPE svg PUBLIC "-//W3C//DTD SVG 1.1//EN" "http://www.w3.org/Graphics/SVG/1.1/DTD/svg11.dtd">
<svg width="100%" height="100%" viewBox="0 0 218 44" version="1.1" xmlns="http://www.w3.org/2000/svg" xmlns:xlink="http://www.w3.org/1999/xlink" xml:space="preserve" xmlns:serif="http://www.serif.com/" style="fill-rule:evenodd;clip-rule:evenodd;stroke-linecap:round;stroke-linejoin:round;">
    <path d="M218,8L218,36C218,40.415 214.415,44 210,44L8,44C3.585,44 0,40.415 0,36L0,8C0,3.585 3.585,0 8,0L210,0C214.415,0 218,3.585 218,8Z" style="fill:white;fill-opacity:0.82;"/>
    <g>
        <path d="M16.74,14.5C16.342,14.5 16,14.844 16,15.25L16,28.75C16,29.156 16.342,29.5 16.74,29.5C17.14,29.5 17.481,29.156 17.481,28.75L17.481,15.25C17.481,14.844 17.14,14.5 16.74,14.5ZM44.148,14.5C43.748,14.498 43.405,14.838 43.401,15.243L43.401,28.748C43.401,29.154 43.743,29.498 44.141,29.498C44.539,29.498 44.881,29.154 44.881,28.748L44.881,17.922C46.62,20.812 48.36,23.701 50.099,26.591C50.307,26.938 50.776,27.053 51.117,26.841C51.218,26.779 51.303,26.693 51.364,26.591C53.103,23.701 54.843,20.812 56.582,17.922L56.582,28.752C56.582,29.158 56.923,29.502 57.323,29.502C57.721,29.502 58.063,29.158 58.063,28.752L58.063,15.25C58.063,14.844 57.721,14.5 57.323,14.5C56.907,14.5 56.721,14.811 56.691,14.861C54.705,18.161 52.719,21.46 50.733,24.76C48.747,21.46 46.76,18.161 44.774,14.861C44.744,14.811 44.56,14.503 44.148,14.5ZM28.686,14.575L28.526,14.595C24.429,15.552 21.939,19.854 23.092,23.932C23.204,24.323 23.623,24.558 24.007,24.448C24.391,24.335 24.626,23.911 24.514,23.521C23.585,20.239 25.575,16.825 28.856,16.057C29.245,15.966 29.501,15.554 29.411,15.157C29.333,14.82 29.021,14.573 28.681,14.575L28.686,14.575ZM31.805,14.575C31.468,14.575 31.159,14.822 31.082,15.157C30.992,15.552 31.248,15.966 31.637,16.057C34.639,16.759 36.615,19.712 36.136,22.8C36.074,23.202 36.358,23.596 36.752,23.658C37.147,23.721 37.537,23.435 37.599,23.034C38.195,19.186 35.712,15.471 31.969,14.597L31.803,14.577L31.805,14.575ZM32.825,22.541C32.401,22.541 32.215,22.865 32.185,22.917C31.984,23.268 32.11,23.74 32.456,23.941C34.5,25.136 36.545,26.332 38.589,27.527C38.935,27.73 39.401,27.604 39.6,27.253C39.801,26.901 39.675,26.429 39.329,26.228C37.285,25.033 35.24,23.838 33.196,22.643C33.084,22.577 32.955,22.541 32.825,22.543L32.825,22.541ZM25.335,25.795C25.043,25.795 24.865,25.961 24.833,25.99C24.538,26.262 24.516,26.75 24.785,27.049C27.453,30.014 32.039,30.296 35.042,27.682C35.345,27.418 35.382,26.932 35.12,26.624C34.86,26.317 34.38,26.281 34.076,26.545C31.665,28.644 28.022,28.417 25.879,26.038C25.661,25.796 25.383,25.793 25.335,25.793L25.335,25.795Z" style="fill:url(#_Linear1);fill-rule:nonzero;"/>
        <g transform="matrix(0.301407,0,0,0.301407,16.0914,13.9872)">
            <path d="M176.494,48.749L176.494,1.149L192.678,1.149C207.041,1.149 215.254,10.649 215.254,24.949C215.254,39.859 206.77,48.749 192.678,48.749L176.494,48.749ZM182.614,43.445L191.998,43.445C198.658,43.445 202.944,41.312 204.918,38.413C207.406,34.859 208.318,30.803 208.318,24.949C208.318,18.98 207.389,15.084 204.918,11.553C202.793,8.49 198.341,6.453 191.998,6.453L182.614,6.453L182.614,43.445ZM237.579,49.565C227.006,49.565 220.579,42.842 220.579,31.749C220.579,21.409 227.069,13.933 237.579,13.933C247.954,13.933 254.511,21.477 254.511,31.749C254.511,42.426 247.752,49.565 237.579,49.565ZM237.579,44.737C245.576,44.737 247.915,39.303 247.915,31.749C247.915,24.195 245.576,18.761 237.579,18.761C229.509,18.761 227.175,24.105 227.175,31.749C227.175,39.438 229.473,44.737 237.579,44.737ZM276.291,49.565C265.922,49.565 259.427,42.91 259.427,31.749C259.427,21.272 265.918,13.933 276.291,13.933C284.919,13.933 289.825,19.113 291.183,25.561L285.471,26.649C284.526,22.995 282.578,18.829 276.291,18.829C267.833,18.829 266.159,24.551 266.159,31.749C266.159,39.153 267.899,44.669 276.291,44.669C281.464,44.669 284.244,42.641 285.539,37.733L291.319,38.345C290.101,45.18 284.197,49.565 276.291,49.565ZM309.832,49.565C302.133,49.565 295.349,45.95 295.416,37.597L300.992,37.053C300.924,41.784 304.388,44.737 309.696,44.737C311.841,44.737 318.06,44.549 318.06,39.229C318.06,35.325 311.346,34.757 307.112,33.653C301.988,32.325 296.164,30.734 296.164,23.861C296.164,16.851 302.624,13.933 308.744,13.933C316.23,13.933 322.228,17.014 322.956,25.085L317.244,25.969C317.115,21.524 314.289,18.761 308.676,18.761C305.231,18.761 301.876,20.422 301.876,23.453C301.876,26.7 306.511,27.585 310.036,28.349C316.583,29.724 323.84,30.86 323.84,38.889C323.84,46.949 317.05,49.565 309.832,49.565Z" style="fill:url(#_Linear2);fill-rule:nonzero;"/>
        </g>
    </g>
    <path d="M187.531,25.333L191.531,29.333L195.531,25.333" style="fill:none;fill-rule:nonzero;stroke:black;stroke-width:1.5px;"/>
    <path d="M187.531,18.667L191.531,14.667L195.531,18.667" style="fill:none;fill-rule:nonzero;stroke:black;stroke-width:1.5px;"/>
    <defs>
        <linearGradient id="_Linear1" x1="0" y1="0" x2="1" y2="0" gradientUnits="userSpaceOnUse" gradientTransform="matrix(88.8316,0.646868,-0.646868,88.8316,28.211,22.3609)"><stop offset="0" style="stop-color:black;stop-opacity:1"/><stop offset="1" style="stop-color:rgb(136,218,215);stop-opacity:1"/></linearGradient>
        <linearGradient id="_Linear2" x1="0" y1="0" x2="1" y2="0" gradientUnits="userSpaceOnUse" gradientTransform="matrix(294.723,2.14616,-2.14616,294.723,40.21,27.7821)"><stop offset="0" style="stop-color:black;stop-opacity:1"/><stop offset="1" style="stop-color:rgb(136,218,215);stop-opacity:1"/></linearGradient>
    </defs>
</svg>
