<?xml version="1.0" encoding="UTF-8" standalone="no"?>
<!DOCTYPE svg PUBLIC "-//W3C//DTD SVG 1.1//EN" "http://www.w3.org/Graphics/SVG/1.1/DTD/svg11.dtd">
<svg width="100%" height="100%" viewBox="0 0 218 44" version="1.1" xmlns="http://www.w3.org/2000/svg" xmlns:xlink="http://www.w3.org/1999/xlink" xml:space="preserve" xmlns:serif="http://www.serif.com/" style="fill-rule:evenodd;clip-rule:evenodd;stroke-linecap:round;stroke-linejoin:round;">
    <path d="M218,8L218,36C218,40.415 214.415,44 210,44L8,44C3.585,44 0,40.415 0,36L0,8C0,3.585 3.585,0 8,0L210,0C214.415,0 218,3.585 218,8Z" style="fill:white;fill-opacity:0.82;"/>
    <g id="IQM-Docs-logo.svg" transform="matrix(0.304947,0,0,0.304947,65.3169,22.0875)">
        <g transform="matrix(1,0,0,1,-161.5,-25)">
            <path d="M178.988,40.52L188.1,40.52C190.412,40.52 192.565,40.112 194.56,39.296C196.555,38.48 198.3,37.324 199.796,35.828C201.292,34.332 202.448,32.609 203.264,30.66C204.125,28.711 204.556,26.58 204.556,24.268C204.556,21.956 204.125,19.803 203.264,17.808C202.448,15.813 201.292,14.091 199.796,12.64C198.3,11.144 196.555,9.988 194.56,9.172C192.565,8.311 190.412,7.88 188.1,7.88L178.988,7.88L178.988,40.52ZM170.624,48L170.624,0.4L188.1,0.4C191.681,0.4 194.991,1.012 198.028,2.236C201.065,3.415 203.717,5.092 205.984,7.268C208.251,9.399 210.019,11.915 211.288,14.816C212.557,17.717 213.192,20.868 213.192,24.268C213.192,27.668 212.557,30.819 211.288,33.72C210.019,36.576 208.251,39.069 205.984,41.2C203.717,43.331 201.065,45.008 198.028,46.232C194.991,47.411 191.681,48 188.1,48L170.624,48ZM235.797,48.68C232.351,48.68 229.223,47.887 226.413,46.3C223.647,44.668 221.449,42.492 219.817,39.772C218.185,37.007 217.369,33.924 217.369,30.524C217.369,27.124 218.185,24.064 219.817,21.344C221.449,18.579 223.647,16.403 226.413,14.816C229.223,13.184 232.351,12.368 235.797,12.368C239.287,12.368 242.415,13.184 245.181,14.816C247.991,16.403 250.213,18.579 251.845,21.344C253.477,24.064 254.293,27.124 254.293,30.524C254.293,33.924 253.477,37.007 251.845,39.772C250.213,42.492 247.991,44.668 245.181,46.3C242.415,47.887 239.287,48.68 235.797,48.68ZM235.797,41.744C237.791,41.744 239.582,41.245 241.169,40.248C242.801,39.251 244.093,37.913 245.045,36.236C245.997,34.513 246.473,32.609 246.473,30.524C246.473,28.393 245.997,26.489 245.045,24.812C244.093,23.135 242.801,21.797 241.169,20.8C239.582,19.803 237.791,19.304 235.797,19.304C233.847,19.304 232.057,19.803 230.425,20.8C228.793,21.797 227.501,23.135 226.549,24.812C225.642,26.489 225.189,28.393 225.189,30.524C225.189,32.609 225.642,34.513 226.549,36.236C227.501,37.913 228.793,39.251 230.425,40.248C232.057,41.245 233.847,41.744 235.797,41.744ZM276.282,48.612C272.882,48.612 269.8,47.819 267.034,46.232C264.314,44.645 262.138,42.492 260.506,39.772C258.92,37.007 258.126,33.924 258.126,30.524C258.126,27.079 258.92,23.996 260.506,21.276C262.138,18.556 264.314,16.38 267.034,14.748C269.8,13.116 272.882,12.3 276.282,12.3C279.002,12.3 281.609,12.821 284.102,13.864C286.596,14.907 288.749,16.403 290.562,18.352L285.666,23.656C284.352,22.205 282.924,21.14 281.382,20.46C279.841,19.735 278.209,19.372 276.486,19.372C274.537,19.372 272.769,19.871 271.182,20.868C269.596,21.82 268.326,23.135 267.374,24.812C266.468,26.489 266.014,28.393 266.014,30.524C266.014,32.609 266.468,34.513 267.374,36.236C268.326,37.913 269.618,39.251 271.25,40.248C272.882,41.2 274.673,41.676 276.622,41.676C278.3,41.676 279.864,41.336 281.314,40.656C282.81,39.976 284.216,38.956 285.53,37.596L290.358,42.628C288.545,44.532 286.414,46.005 283.966,47.048C281.518,48.091 278.957,48.612 276.282,48.612ZM307.715,48.68C304.587,48.68 301.686,48.249 299.011,47.388C296.337,46.527 294.025,45.28 292.075,43.648L296.155,38.344C298.105,39.795 300.009,40.883 301.867,41.608C303.771,42.288 305.675,42.628 307.579,42.628C309.846,42.628 311.682,42.22 313.087,41.404C314.493,40.543 315.195,39.432 315.195,38.072C315.195,36.984 314.787,36.123 313.971,35.488C313.155,34.853 311.886,34.4 310.163,34.128L303.635,33.176C300.145,32.677 297.515,31.589 295.747,29.912C293.979,28.189 293.095,25.945 293.095,23.18C293.095,21.004 293.662,19.123 294.795,17.536C295.974,15.904 297.629,14.635 299.759,13.728C301.89,12.821 304.383,12.368 307.239,12.368C309.778,12.368 312.226,12.731 314.583,13.456C316.986,14.181 319.253,15.292 321.383,16.788L317.507,22.024C315.558,20.8 313.699,19.916 311.931,19.372C310.163,18.783 308.373,18.488 306.559,18.488C304.655,18.488 303.114,18.873 301.935,19.644C300.802,20.369 300.235,21.367 300.235,22.636C300.235,23.769 300.643,24.653 301.459,25.288C302.275,25.877 303.635,26.308 305.539,26.58L311.999,27.532C315.49,27.985 318.142,29.073 319.955,30.796C321.769,32.473 322.675,34.672 322.675,37.392C322.675,39.568 322.018,41.517 320.703,43.24C319.389,44.917 317.598,46.255 315.331,47.252C313.11,48.204 310.571,48.68 307.715,48.68Z" style="fill:rgb(6,14,29);fill-rule:nonzero;"/>
            <path d="M178.988,40.52L188.1,40.52C190.412,40.52 192.565,40.112 194.56,39.296C196.555,38.48 198.3,37.324 199.796,35.828C201.292,34.332 202.448,32.609 203.264,30.66C204.125,28.711 204.556,26.58 204.556,24.268C204.556,21.956 204.125,19.803 203.264,17.808C202.448,15.813 201.292,14.091 199.796,12.64C198.3,11.144 196.555,9.988 194.56,9.172C192.565,8.311 190.412,7.88 188.1,7.88L178.988,7.88L178.988,40.52ZM170.624,48L170.624,0.4L188.1,0.4C191.681,0.4 194.991,1.012 198.028,2.236C201.065,3.415 203.717,5.092 205.984,7.268C208.251,9.399 210.019,11.915 211.288,14.816C212.557,17.717 213.192,20.868 213.192,24.268C213.192,27.668 212.557,30.819 211.288,33.72C210.019,36.576 208.251,39.069 205.984,41.2C203.717,43.331 201.065,45.008 198.028,46.232C194.991,47.411 191.681,48 188.1,48L170.624,48Z" style="fill:rgb(6,14,29);fill-rule:nonzero;"/>
            <path d="M235.797,48.68C232.351,48.68 229.223,47.887 226.413,46.3C223.647,44.668 221.449,42.492 219.817,39.772C218.185,37.007 217.369,33.924 217.369,30.524C217.369,27.124 218.185,24.064 219.817,21.344C221.449,18.579 223.647,16.403 226.413,14.816C229.223,13.184 232.351,12.368 235.797,12.368C239.287,12.368 242.415,13.184 245.181,14.816C247.991,16.403 250.213,18.579 251.845,21.344C253.477,24.064 254.293,27.124 254.293,30.524C254.293,33.924 253.477,37.007 251.845,39.772C250.213,42.492 247.991,44.668 245.181,46.3C242.415,47.887 239.287,48.68 235.797,48.68ZM235.797,41.744C237.791,41.744 239.582,41.245 241.169,40.248C242.801,39.251 244.093,37.913 245.045,36.236C245.997,34.513 246.473,32.609 246.473,30.524C246.473,28.393 245.997,26.489 245.045,24.812C244.093,23.135 242.801,21.797 241.169,20.8C239.582,19.803 237.791,19.304 235.797,19.304C233.847,19.304 232.057,19.803 230.425,20.8C228.793,21.797 227.501,23.135 226.549,24.812C225.642,26.489 225.189,28.393 225.189,30.524C225.189,32.609 225.642,34.513 226.549,36.236C227.501,37.913 228.793,39.251 230.425,40.248C232.057,41.245 233.847,41.744 235.797,41.744Z" style="fill:rgb(6,14,29);fill-rule:nonzero;"/>
            <path d="M276.282,48.612C272.882,48.612 269.8,47.819 267.034,46.232C264.314,44.645 262.138,42.492 260.506,39.772C258.92,37.007 258.126,33.924 258.126,30.524C258.126,27.079 258.92,23.996 260.506,21.276C262.138,18.556 264.314,16.38 267.034,14.748C269.8,13.116 272.882,12.3 276.282,12.3C279.002,12.3 281.609,12.821 284.102,13.864C286.596,14.907 288.749,16.403 290.562,18.352L285.666,23.656C284.352,22.205 282.924,21.14 281.382,20.46C279.841,19.735 278.209,19.372 276.486,19.372C274.537,19.372 272.769,19.871 271.182,20.868C269.596,21.82 268.326,23.135 267.374,24.812C266.468,26.489 266.014,28.393 266.014,30.524C266.014,32.609 266.468,34.513 267.374,36.236C268.326,37.913 269.618,39.251 271.25,40.248C272.882,41.2 274.673,41.676 276.622,41.676C278.3,41.676 279.864,41.336 281.314,40.656C282.81,39.976 284.216,38.956 285.53,37.596L290.358,42.628C288.545,44.532 286.414,46.005 283.966,47.048C281.518,48.091 278.957,48.612 276.282,48.612Z" style="fill:rgb(6,14,29);fill-rule:nonzero;"/>
            <path d="M307.715,48.68C304.587,48.68 301.686,48.249 299.011,47.388C296.337,46.527 294.025,45.28 292.075,43.648L296.155,38.344C298.105,39.795 300.009,40.883 301.867,41.608C303.771,42.288 305.675,42.628 307.579,42.628C309.846,42.628 311.682,42.22 313.087,41.404C314.493,40.543 315.195,39.432 315.195,38.072C315.195,36.984 314.787,36.123 313.971,35.488C313.155,34.853 311.886,34.4 310.163,34.128L303.635,33.176C300.145,32.677 297.515,31.589 295.747,29.912C293.979,28.189 293.095,25.945 293.095,23.18C293.095,21.004 293.662,19.123 294.795,17.536C295.974,15.904 297.629,14.635 299.759,13.728C301.89,12.821 304.383,12.368 307.239,12.368C309.778,12.368 312.226,12.731 314.583,13.456C316.986,14.181 319.253,15.292 321.383,16.788L317.507,22.024C315.558,20.8 313.699,19.916 311.931,19.372C310.163,18.783 308.373,18.488 306.559,18.488C304.655,18.488 303.114,18.873 301.935,19.644C300.802,20.369 300.235,21.367 300.235,22.636C300.235,23.769 300.643,24.653 301.459,25.288C302.275,25.877 303.635,26.308 305.539,26.58L311.999,27.532C315.49,27.985 318.142,29.073 319.955,30.796C321.769,32.473 322.675,34.672 322.675,37.392C322.675,39.568 322.018,41.517 320.703,43.24C319.389,44.917 317.598,46.255 315.331,47.252C313.11,48.204 310.571,48.68 307.715,48.68Z" style="fill:rgb(6,14,29);fill-rule:nonzero;"/>
            <path d="M2.447,0C1.798,0 1.176,0.258 0.717,0.718C0.258,1.177 0,1.8 0,2.45L0,46.55C0,47.2 0.258,47.823 0.717,48.282C1.176,48.742 1.798,49 2.447,49C3.096,49 3.719,48.742 4.178,48.282C4.637,47.823 4.894,47.2 4.894,46.55L4.894,2.45C4.894,1.8 4.637,1.177 4.178,0.718C3.719,0.258 3.096,0 2.447,0ZM93.012,0.001C92.689,-0.002 92.369,0.06 92.07,0.182C91.771,0.304 91.499,0.484 91.27,0.711C91.04,0.939 90.859,1.21 90.734,1.508C90.61,1.807 90.546,2.127 90.546,2.45L90.546,46.55C90.546,47.2 90.804,47.823 91.263,48.282C91.722,48.742 92.344,49 92.993,49C93.642,49 94.264,48.742 94.723,48.282C95.182,47.823 95.44,47.2 95.44,46.55L95.44,11.176L112.683,39.495C112.902,39.853 113.209,40.15 113.575,40.356C113.941,40.561 114.353,40.67 114.773,40.67C115.193,40.67 115.605,40.561 115.971,40.356C116.337,40.15 116.644,39.853 116.863,39.495L134.106,11.176L134.106,46.55C134.106,47.2 134.363,47.823 134.822,48.282C135.281,48.742 135.904,49 136.553,49C137.202,49 137.824,48.742 138.283,48.282C138.742,47.823 139,47.2 139,46.55L139,2.45C139,1.916 138.825,1.396 138.503,0.971C138.18,0.545 137.728,0.236 137.214,0.092C136.7,-0.052 136.153,-0.025 135.657,0.171C135.16,0.366 134.741,0.719 134.463,1.175L114.773,33.513L95.083,1.175C94.866,0.819 94.562,0.525 94.2,0.319C93.837,0.114 93.429,0.004 93.012,0.001ZM41.921,0.245C41.744,0.247 41.568,0.267 41.395,0.307C27.82,3.441 19.603,17.403 23.441,30.81C23.62,31.434 24.039,31.962 24.607,32.278C25.174,32.593 25.844,32.669 26.468,32.49C27.092,32.311 27.619,31.891 27.933,31.323C28.248,30.755 28.324,30.085 28.145,29.46C25.061,18.687 31.587,7.601 42.495,5.083C42.808,5.01 43.104,4.877 43.366,4.69C43.627,4.504 43.85,4.267 44.02,3.994C44.19,3.721 44.305,3.418 44.358,3.1C44.411,2.783 44.402,2.458 44.329,2.145C44.204,1.601 43.897,1.116 43.459,0.771C43.022,0.425 42.479,0.24 41.921,0.245ZM52.224,0.245C51.671,0.245 51.133,0.432 50.7,0.777C50.267,1.123 49.963,1.605 49.838,2.145C49.766,2.458 49.756,2.783 49.81,3.1C49.863,3.418 49.978,3.722 50.148,3.994C50.319,4.267 50.541,4.504 50.803,4.691C51.065,4.877 51.361,5.011 51.674,5.083C61.659,7.386 68.132,16.975 66.544,27.109C66.444,27.751 66.602,28.406 66.984,28.932C67.366,29.457 67.941,29.808 68.582,29.909C69.224,30.01 69.878,29.852 70.403,29.469C70.928,29.086 71.279,28.511 71.379,27.869C73.359,15.24 65.215,3.177 52.772,0.307C52.593,0.266 52.409,0.245 52.224,0.245ZM55.593,26.264C55.165,26.265 54.744,26.379 54.373,26.594C54.003,26.809 53.695,27.117 53.481,27.489C53.156,28.052 53.068,28.72 53.236,29.348C53.404,29.976 53.814,30.511 54.376,30.836L74.639,42.547C75.201,42.872 75.869,42.96 76.496,42.792C77.123,42.623 77.658,42.213 77.982,41.65C78.307,41.087 78.394,40.419 78.226,39.791C78.059,39.163 77.648,38.628 77.086,38.303L56.823,26.592C56.449,26.376 56.025,26.263 55.593,26.264ZM30.845,36.897C30.231,36.895 29.639,37.123 29.186,37.537C28.706,37.974 28.42,38.585 28.39,39.234C28.36,39.883 28.589,40.517 29.026,40.997C37.889,50.73 52.943,51.65 62.921,43.067C63.414,42.644 63.718,42.042 63.767,41.394C63.815,40.746 63.605,40.105 63.182,39.612C62.759,39.12 62.158,38.815 61.511,38.766C60.864,38.717 60.224,38.927 59.731,39.35C51.72,46.24 39.758,45.51 32.643,37.697C32.415,37.446 32.137,37.246 31.828,37.108C31.518,36.971 31.184,36.899 30.845,36.897Z" style="fill:rgb(6,14,29);fill-rule:nonzero;"/>
        </g>
    </g>
    <path d="M187.531,25.333L191.531,29.333L195.531,25.333" style="fill:none;fill-rule:nonzero;stroke:black;stroke-width:1.5px;"/>
    <path d="M187.531,18.667L191.531,14.667L195.531,18.667" style="fill:none;fill-rule:nonzero;stroke:black;stroke-width:1.5px;"/>
</svg>
